<svg width="360" height="120" viewBox="0 0 360 120" fill="none" xmlns="http://www.w3.org/2000/svg">
<g clip-path="url(#clip0_81_186)">
<path d="M167.741 72.4817L184.175 39.8171H197.482L177.256 79.6585H158.227L138 39.8171H151.241L167.741 72.4817Z" fill="white"/>
<path d="M222.774 71.0732C226.722 71.0732 229.761 70.626 231.89 69.7317C234.019 68.7927 235.505 67.4736 236.348 65.7744H249.189C247.858 70.6931 244.975 74.4715 240.539 77.1098C236.104 79.7033 230.049 81 222.375 81C213.548 81 206.606 79.189 201.55 75.5671C196.493 71.9451 193.965 66.6687 193.965 59.7378C193.965 55.1321 195.14 51.2419 197.491 48.0671C199.886 44.8476 203.169 42.4553 207.338 40.8902C211.508 39.2805 216.298 38.4756 221.71 38.4756C230.359 38.4756 237.168 40.4207 242.136 44.311C247.104 48.1565 249.588 54.1037 249.588 62.1524H207.139C207.627 65.3719 209.157 67.6748 211.73 69.061C214.302 70.4024 217.984 71.0732 222.774 71.0732ZM221.71 47.5305C217.895 47.5305 214.812 48.1118 212.462 49.2744C210.111 50.3923 208.514 52.2256 207.671 54.7744H236.081C235.239 52.2256 233.62 50.3923 231.224 49.2744C228.873 48.1118 225.702 47.5305 221.71 47.5305Z" fill="white"/>
<path d="M260.846 79.6585H243.48L265.038 59.7378L243.48 39.8171H260.846L273.488 52.628L286.129 39.8171H303.495L281.937 59.7378L303.495 79.6585H286.129L273.488 66.8476L260.846 79.6585Z" fill="white"/>
<path d="M306.159 79.6585V26H319V79.6585H306.159Z" fill="white"/>
</g>
<g clip-path="url(#clip1_81_186)">
<path d="M129 56.6486H126.364C125.722 52.6807 123.879 48.8674 120.818 45.8032C113.077 38.0616 100.531 38.0616 92.7892 45.8032C89.729 48.8634 87.8818 52.6767 87.2436 56.6486H82.7604C82.1222 52.6807 80.275 48.8674 77.2148 45.8032C69.4732 38.0616 56.9272 38.0616 49.1856 45.8032C46.1254 48.8634 44.2782 52.6767 43.64 56.6486H41V62.991H43.636C44.2742 66.9589 46.1214 70.7722 49.1816 73.8364C56.9232 81.578 69.4692 81.578 77.2108 73.8364C80.271 70.7762 82.1182 66.9629 82.7564 62.991H87.2396C87.8778 66.9589 89.725 70.7722 92.7852 73.8364C100.527 81.578 113.073 81.578 120.814 73.8364C123.875 70.7762 125.722 66.9629 126.36 62.991H128.996V56.6486H129Z" fill="white"/>
</g>
<defs>
<clipPath id="clip0_81_186">
<rect width="262" height="120" fill="white" transform="translate(98)"/>
</clipPath>
<clipPath id="clip1_81_186">
<rect width="88" height="39.6396" fill="white" transform="translate(41 40)"/>
</clipPath>
</defs>
</svg>
