<svg width="360" height="120" viewBox="0 0 360 120" fill="none" xmlns="http://www.w3.org/2000/svg">
<g clip-path="url(#clip0_108_406)">
<path d="M167.741 72.4817L184.175 39.8171H197.482L177.256 79.6585H158.227L138 39.8171H151.241L167.741 72.4817Z" fill="#101010"/>
<path d="M222.774 71.0732C226.722 71.0732 229.761 70.626 231.89 69.7317C234.019 68.7927 235.505 67.4736 236.348 65.7744H249.189C247.858 70.6931 244.975 74.4715 240.539 77.1098C236.104 79.7033 230.049 81 222.375 81C213.548 81 206.606 79.189 201.55 75.5671C196.493 71.9451 193.965 66.6687 193.965 59.7378C193.965 55.1321 195.14 51.2419 197.491 48.0671C199.886 44.8476 203.169 42.4553 207.338 40.8902C211.508 39.2805 216.298 38.4756 221.71 38.4756C230.359 38.4756 237.168 40.4207 242.136 44.311C247.104 48.1565 249.588 54.1037 249.588 62.1524H207.139C207.627 65.3719 209.157 67.6748 211.73 69.061C214.302 70.4024 217.984 71.0732 222.774 71.0732ZM221.71 47.5305C217.895 47.5305 214.812 48.1118 212.462 49.2744C210.111 50.3923 208.514 52.2256 207.671 54.7744H236.081C235.239 52.2256 233.62 50.3923 231.224 49.2744C228.873 48.1118 225.702 47.5305 221.71 47.5305Z" fill="#101010"/>
<path d="M260.846 79.6585H243.48L265.038 59.7378L243.48 39.8171H260.846L273.488 52.628L286.129 39.8171H303.495L281.937 59.7378L303.495 79.6585H286.129L273.488 66.8476L260.846 79.6585Z" fill="#101010"/>
<path d="M306.159 79.6585V26H319V79.6585H306.159Z" fill="#101010"/>
</g>
<g clip-path="url(#clip1_108_406)">
<path d="M41 56.6487H129V62.991H41V56.6487Z" fill="#101010"/>
<path d="M77.2129 73.8345C69.4728 81.5745 56.9236 81.5745 49.1835 73.8346C41.4434 66.0944 41.4434 53.5452 49.1835 45.8051C56.9236 38.065 69.4728 38.0649 77.2129 45.805C84.9532 53.5452 84.9532 66.0944 77.2129 73.8345Z" fill="#101010"/>
<path d="M120.816 73.8345C113.076 81.5745 100.527 81.5745 92.7872 73.8346C85.0472 66.0944 85.0472 53.5452 92.7872 45.8051C100.527 38.065 113.076 38.0649 120.816 45.805C128.557 53.5452 128.557 66.0944 120.816 73.8345Z" fill="#101010"/>
</g>
<defs>
<clipPath id="clip0_108_406">
<rect width="262" height="120" fill="white" transform="translate(98)"/>
</clipPath>
<clipPath id="clip1_108_406">
<rect width="88" height="39.6396" fill="white" transform="translate(41 40)"/>
</clipPath>
</defs>
</svg>
