<svg width="120" height="120" viewBox="0 0 120 120" fill="none" xmlns="http://www.w3.org/2000/svg">
<g clip-path="url(#clip0_1149_11211)">
<g clip-path="url(#clip1_1149_11211)">
<path d="M11.8804 108.12C11.8804 108.12 11.8804 86.6296 11.8804 60.12C11.8804 33.6103 11.8804 12.12 11.8804 12.12C38.39 12.12 59.8804 33.6103 59.8804 60.12C59.8804 86.6296 38.3901 108.12 11.8804 108.12Z" fill="#ACD9B7"/>
</g>
<g clip-path="url(#clip2_1149_11211)">
<path d="M108.12 12.1199C108.12 12.1199 108.12 33.6102 108.12 60.1199C108.12 86.6296 108.12 108.12 108.12 108.12C81.61 108.12 60.1196 86.6296 60.1196 60.1199C60.1196 33.6102 81.61 12.1199 108.12 12.1199Z" fill="#F8C471"/>
</g>
<rect x="29.6401" y="60.12" width="30.48" height="59.88" fill="#FCC5F3"/>
<rect x="60.1201" width="30.72" height="59.88" fill="#3D4D41"/>
<path d="M27.1206 57.7477H93.1321V62.4211H27.1206V57.7477Z" fill="black"/>
<path d="M54.3893 70.4115C54.3893 70.4115 49.7658 65.788 44.0625 60.0847C38.3592 54.3813 33.7357 49.7578 33.7357 49.7578C39.439 44.0545 48.686 44.0545 54.3893 49.7578C60.0927 55.4612 60.0927 64.7081 54.3893 70.4115Z" fill="#333333"/>
<path d="M54.3895 70.4115C48.6861 76.1148 39.4392 76.1148 33.7358 70.4115C28.0325 64.7081 28.0325 55.4612 33.7358 49.7578C33.7358 49.7578 38.3593 54.3813 44.0627 60.0846C49.766 65.788 54.3895 70.4115 54.3895 70.4115Z" fill="black"/>
<path d="M86.5185 70.4115C86.5185 70.4115 81.895 65.788 76.1917 60.0847C70.4883 54.3813 65.8648 49.7578 65.8648 49.7578C71.5682 44.0545 80.8151 44.0545 86.5185 49.7578C92.2218 55.4612 92.2218 64.7081 86.5185 70.4115Z" fill="#333333"/>
<path d="M86.5186 70.4115C80.8153 76.1148 71.5683 76.1148 65.865 70.4115C60.1616 64.7081 60.1616 55.4612 65.865 49.7578C65.865 49.7578 70.4885 54.3813 76.1918 60.0846C81.8951 65.788 86.5186 70.4115 86.5186 70.4115Z" fill="black"/>
<rect x="58.6794" y="61.8" width="4.44" height="0.6" fill="black"/>
</g>
<defs>
<clipPath id="clip0_1149_11211">
<rect width="120" height="120" fill="white"/>
</clipPath>
<clipPath id="clip1_1149_11211">
<rect width="95.9999" height="48" fill="white" transform="translate(59.8799 12.12) rotate(90)"/>
</clipPath>
<clipPath id="clip2_1149_11211">
<rect width="95.9999" height="48" fill="white" transform="translate(60.1201 108.12) rotate(-90)"/>
</clipPath>
</defs>
</svg>
