<svg width="120" height="120" viewBox="0 0 120 120" fill="none" xmlns="http://www.w3.org/2000/svg">
<g clip-path="url(#clip0_1149_11321)">
<path d="M38.4 120L72 120L72 86.4L38.4 120Z" fill="#3D4D41"/>
<circle cx="75.6" cy="60" r="26.52" fill="#FCC5F3"/>
<circle cx="35.3399" cy="64.0201" r="23.94" fill="#ACD9B7"/>
<path d="M27.1205 57.7476H93.132V62.4209H27.1205V57.7476Z" fill="black"/>
<path d="M54.3892 70.4114C54.3892 70.4114 49.7657 65.7879 44.0624 60.0845C38.359 54.3812 33.7356 49.7577 33.7356 49.7577C39.4389 44.0544 48.6859 44.0544 54.3892 49.7577C60.0925 55.4611 60.0925 64.708 54.3892 70.4114Z" fill="#333333"/>
<path d="M54.3895 70.4115C48.6861 76.1148 39.4392 76.1148 33.7358 70.4115C28.0325 64.7081 28.0325 55.4612 33.7358 49.7578C33.7358 49.7578 38.3593 54.3813 44.0627 60.0846C49.766 65.788 54.3895 70.4115 54.3895 70.4115Z" fill="black"/>
<path d="M86.5185 70.4114C86.5185 70.4114 81.895 65.7879 76.1917 60.0845C70.4883 54.3812 65.8648 49.7577 65.8648 49.7577C71.5682 44.0544 80.8151 44.0544 86.5185 49.7577C92.2218 55.4611 92.2218 64.708 86.5185 70.4114Z" fill="#333333"/>
<path d="M86.5186 70.4115C80.8153 76.1148 71.5683 76.1148 65.865 70.4115C60.1616 64.7081 60.1616 55.4612 65.865 49.7578C65.865 49.7578 70.4885 54.3813 76.1918 60.0846C81.8951 65.788 86.5186 70.4115 86.5186 70.4115Z" fill="black"/>
<rect x="58.6794" y="61.8" width="4.44" height="0.6" fill="black"/>
<path d="M72 42.96C58.7452 42.96 48 32.2148 48 18.96L72 18.96C85.2548 18.96 96 29.7051 96 42.96L72 42.96Z" fill="#ACD9B7"/>
<path d="M48 36C61.2548 36 72 25.2548 72 12L48 12C34.7452 12 24 22.7452 24 36L48 36Z" fill="#3D4D41"/>
<path d="M62.4 60C62.4 60 62.4 68.0589 62.4 78C62.4 87.9411 62.4 96 62.4 96C53.1216 96 45.6 87.9411 45.6 78C45.6 68.0589 53.1216 60 62.4 60Z" fill="#F8C471"/>
</g>
<defs>
<clipPath id="clip0_1149_11321">
<rect width="120" height="120" fill="white"/>
</clipPath>
</defs>
</svg>
