<svg width="120" height="120" viewBox="0 0 120 120" fill="none" xmlns="http://www.w3.org/2000/svg">
<path d="M96 79.9202L24 79.9202L24 7.92017L96 79.9202Z" fill="#F8C471"/>
<path d="M84 12.0002C97.2548 12.0002 108 22.7454 108 36.0002L84 36.0002C70.7452 36.0002 60 25.2551 60 12.0002L84 12.0002Z" fill="#3D4D41"/>
<path d="M63.8401 79.9202L24.0001 79.9202L24.0001 40.0802L63.8401 79.9202Z" fill="#ACD9B7"/>
<path d="M40.0799 79.9202C55.5881 79.9202 68.1599 92.492 68.1599 108L40.0799 108C24.5717 108 11.9999 95.4283 11.9999 79.9202L40.0799 79.9202Z" fill="#3D4D41"/>
<path d="M96 79.9202L52.08 36.0002L96 36.0002L96 79.9202Z" fill="#FCC5F3"/>
<path d="M27.1208 57.748H93.1324V62.4214H27.1208V57.748Z" fill="black"/>
<path d="M54.3893 70.4118C54.3893 70.4118 49.7658 65.7884 44.0625 60.085C38.3592 54.3817 33.7357 49.7582 33.7357 49.7582C39.439 44.0549 48.686 44.0549 54.3893 49.7582C60.0927 55.4616 60.0927 64.7085 54.3893 70.4118Z" fill="#333333"/>
<path d="M54.3895 70.4119C48.6861 76.1153 39.4392 76.1153 33.7358 70.4119C28.0325 64.7086 28.0325 55.4617 33.7358 49.7583C33.7358 49.7583 38.3593 54.3818 44.0627 60.0851C49.766 65.7885 54.3895 70.4119 54.3895 70.4119Z" fill="black"/>
<path d="M86.5187 70.4118C86.5187 70.4118 81.8952 65.7884 76.1919 60.085C70.4886 54.3817 65.8651 49.7582 65.8651 49.7582C71.5684 44.0549 80.8154 44.0549 86.5187 49.7582C92.2221 55.4616 92.2221 64.7085 86.5187 70.4118Z" fill="#333333"/>
<path d="M86.5189 70.4119C80.8155 76.1153 71.5686 76.1153 65.8652 70.4119C60.1619 64.7086 60.1619 55.4617 65.8652 49.7583C65.8652 49.7583 70.4887 54.3818 76.1921 60.0851C81.8954 65.7885 86.5189 70.4119 86.5189 70.4119Z" fill="black"/>
<rect x="58.6797" y="61.8003" width="4.44" height="0.6" fill="black"/>
</svg>
