<svg width="120" height="120" viewBox="0 0 120 120" fill="none" xmlns="http://www.w3.org/2000/svg">
<path d="M12 0L72 60L12 60L12 0Z" fill="#F8C471"/>
<path d="M120 84L84 120L84 84L120 84Z" fill="#3D4D41"/>
<path d="M96 0L60 36L60 -1.57361e-06L96 0Z" fill="#3D4D41"/>
<rect x="60" y="36" width="48" height="48" fill="#ACD9B7"/>
<path d="M27.1206 57.7477H93.1321V62.4211H27.1206V57.7477Z" fill="black"/>
<path d="M54.3893 70.4115C54.3893 70.4115 49.7658 65.788 44.0625 60.0847C38.3592 54.3813 33.7357 49.7578 33.7357 49.7578C39.439 44.0545 48.686 44.0545 54.3893 49.7578C60.0927 55.4612 60.0927 64.7081 54.3893 70.4115Z" fill="#333333"/>
<path d="M54.3895 70.4115C48.6861 76.1148 39.4392 76.1148 33.7358 70.4115C28.0325 64.7081 28.0325 55.4612 33.7358 49.7578C33.7358 49.7578 38.3593 54.3813 44.0627 60.0846C49.766 65.788 54.3895 70.4115 54.3895 70.4115Z" fill="black"/>
<path d="M86.5185 70.4115C86.5185 70.4115 81.895 65.788 76.1917 60.0847C70.4883 54.3813 65.8648 49.7578 65.8648 49.7578C71.5682 44.0545 80.8151 44.0545 86.5185 49.7578C92.2218 55.4612 92.2218 64.7081 86.5185 70.4115Z" fill="#333333"/>
<path d="M86.5186 70.4115C80.8153 76.1148 71.5683 76.1148 65.865 70.4115C60.1616 64.7081 60.1616 55.4612 65.865 49.7578C65.865 49.7578 70.4885 54.3813 76.1918 60.0846C81.8951 65.788 86.5186 70.4115 86.5186 70.4115Z" fill="black"/>
<rect x="58.6794" y="61.8" width="4.44" height="0.6" fill="black"/>
<path d="M60.0001 96C60.0001 86.6715 60.0001 62.4 60.0001 62.4C50.6554 62.4 43.0801 69.9623 43.0801 79.2908L43.0801 96L60.0001 96Z" fill="#FCC5F3"/>
</svg>
