<svg width="120" height="120" viewBox="0 0 120 120" fill="none" xmlns="http://www.w3.org/2000/svg">
<g clip-path="url(#clip0_1149_11174)">
<g clip-path="url(#clip1_1149_11174)">
<path d="M12.0001 48.0003C12.0001 48.0003 33.4904 48.0003 60 48.0003C86.5097 48.0003 108 48.0003 108 48.0003C108 74.5099 86.5097 96.0002 60 96.0002C33.4904 96.0002 12.0001 74.5099 12.0001 48.0003Z" fill="#ACD9B7"/>
</g>
<path d="M96.1201 119.981H23.917L60.0186 83.8799L96.1201 119.981Z" fill="#FCC5F3"/>
<path d="M35.9336 23.9628L84.0989 23.9628L60.0163 48.0454L35.9336 23.9628Z" fill="#3D4D41"/>
<circle cx="60" cy="18.2401" r="12" fill="#F8C471"/>
<path d="M27.1206 57.7477H93.1321V62.4211H27.1206V57.7477Z" fill="black"/>
<path d="M54.3893 70.4115C54.3893 70.4115 49.7658 65.788 44.0625 60.0847C38.3592 54.3813 33.7357 49.7578 33.7357 49.7578C39.439 44.0545 48.686 44.0545 54.3893 49.7578C60.0927 55.4612 60.0927 64.7081 54.3893 70.4115Z" fill="#333333"/>
<path d="M54.3895 70.4115C48.6861 76.1148 39.4392 76.1148 33.7358 70.4115C28.0325 64.7081 28.0325 55.4612 33.7358 49.7578C33.7358 49.7578 38.3593 54.3813 44.0627 60.0846C49.766 65.788 54.3895 70.4115 54.3895 70.4115Z" fill="black"/>
<path d="M86.5185 70.4115C86.5185 70.4115 81.895 65.788 76.1917 60.0847C70.4883 54.3813 65.8648 49.7578 65.8648 49.7578C71.5682 44.0545 80.8151 44.0545 86.5185 49.7578C92.2218 55.4612 92.2218 64.7081 86.5185 70.4115Z" fill="#333333"/>
<path d="M86.5186 70.4115C80.8153 76.1148 71.5683 76.1148 65.865 70.4115C60.1616 64.7081 60.1616 55.4612 65.865 49.7578C65.865 49.7578 70.4885 54.3813 76.1918 60.0846C81.8951 65.788 86.5186 70.4115 86.5186 70.4115Z" fill="black"/>
<rect x="58.6794" y="61.8" width="4.44" height="0.6" fill="black"/>
</g>
<defs>
<clipPath id="clip0_1149_11174">
<rect width="120" height="120" fill="white"/>
</clipPath>
<clipPath id="clip1_1149_11174">
<rect width="95.9999" height="48" fill="white" transform="translate(108 96) rotate(-180)"/>
</clipPath>
</defs>
</svg>
