<svg width="120" height="120" viewBox="0 0 120 120" fill="none" xmlns="http://www.w3.org/2000/svg">
<g clip-path="url(#clip0_1149_11470)">
<path d="M8.64001 21.1201L59.52 72.0001H8.64001L8.64001 21.1201Z" fill="#F8C471"/>
<path d="M19.4399 72H55.5599V108L19.4399 72Z" fill="#ACD9B7"/>
<path d="M75.3 35.8609C68.7057 24.4392 72.619 9.83446 84.0407 3.24018L96.0407 24.0248C102.635 35.4464 98.7216 50.0512 87.3 56.6455L75.3 35.8609Z" fill="#ACD9B7"/>
<path d="M44.52 30.3227C51.1142 41.7444 65.719 45.6577 77.1406 39.0634L65.1406 18.2788C58.5464 6.85718 43.9416 2.94384 32.52 9.53812L44.52 30.3227Z" fill="#3D4D41"/>
<path d="M27.1206 54.2676H93.1321V58.941H27.1206V54.2676Z" fill="black"/>
<path d="M54.3892 66.9314C54.3892 66.9314 49.7657 62.3079 44.0624 56.6046C38.359 50.9012 33.7356 46.2777 33.7356 46.2777C39.4389 40.5744 48.6859 40.5744 54.3892 46.2777C60.0925 51.9811 60.0925 61.228 54.3892 66.9314Z" fill="#333333"/>
<path d="M54.3895 66.9315C48.6861 72.6348 39.4392 72.6348 33.7358 66.9315C28.0325 61.2281 28.0325 51.9812 33.7358 46.2778C33.7358 46.2778 38.3593 50.9013 44.0627 56.6046C49.766 62.308 54.3895 66.9315 54.3895 66.9315Z" fill="black"/>
<path d="M86.5185 66.9314C86.5185 66.9314 81.895 62.3079 76.1917 56.6046C70.4883 50.9012 65.8648 46.2777 65.8648 46.2777C71.5682 40.5744 80.8151 40.5744 86.5185 46.2777C92.2218 51.9811 92.2218 61.228 86.5185 66.9314Z" fill="#333333"/>
<path d="M86.5186 66.9315C80.8153 72.6348 71.5683 72.6348 65.865 66.9315C60.1616 61.2281 60.1616 51.9812 65.865 46.2778C65.865 46.2778 70.4885 50.9013 76.1918 56.6046C81.8951 62.308 86.5186 66.9315 86.5186 66.9315Z" fill="black"/>
<rect x="58.6796" y="58.3201" width="4.44" height="0.6" fill="black"/>
<path d="M55.5601 68.04L79.6801 92.16H55.5601L55.5601 68.04Z" fill="#FCC5F3"/>
</g>
<defs>
<clipPath id="clip0_1149_11470">
<rect width="120" height="120" fill="white"/>
</clipPath>
</defs>
</svg>
