<svg width="120" height="120" viewBox="0 0 120 120" fill="none" xmlns="http://www.w3.org/2000/svg">
<path d="M96 120L36 60L96 60L96 120Z" fill="#FCC5F3"/>
<path d="M24 8.04004L75.96 60L24 60L24 8.04004Z" fill="#F8C471"/>
<path d="M60 108.12L12 60.1201L60 60.1201L60 108.12Z" fill="#ACD9B7"/>
<path d="M108 60L60 12L96 12C102.627 12 108 17.3726 108 24L108 60Z" fill="#3D4D41"/>
<path d="M27.1206 57.7478H93.1321V62.4212H27.1206V57.7478Z" fill="black"/>
<path d="M54.3892 70.4116C54.3892 70.4116 49.7657 65.7881 44.0624 60.0848C38.359 54.3814 33.7356 49.758 33.7356 49.758C39.4389 44.0546 48.6859 44.0546 54.3892 49.758C60.0925 55.4613 60.0925 64.7083 54.3892 70.4116Z" fill="#333333"/>
<path d="M54.3895 70.4117C48.6861 76.115 39.4392 76.115 33.7358 70.4117C28.0325 64.7084 28.0325 55.4614 33.7358 49.7581C33.7358 49.7581 38.3593 54.3815 44.0627 60.0849C49.766 65.7882 54.3895 70.4117 54.3895 70.4117Z" fill="black"/>
<path d="M86.5185 70.4116C86.5185 70.4116 81.895 65.7881 76.1917 60.0848C70.4883 54.3814 65.8648 49.758 65.8648 49.758C71.5682 44.0546 80.8151 44.0546 86.5185 49.758C92.2218 55.4613 92.2218 64.7083 86.5185 70.4116Z" fill="#333333"/>
<path d="M86.5186 70.4117C80.8153 76.115 71.5683 76.115 65.865 70.4117C60.1616 64.7084 60.1616 55.4614 65.865 49.7581C65.865 49.7581 70.4885 54.3815 76.1918 60.0849C81.8951 65.7882 86.5186 70.4117 86.5186 70.4117Z" fill="black"/>
<rect x="58.6796" y="61.8" width="4.44" height="0.6" fill="black"/>
</svg>
