<svg width="120" height="120" viewBox="0 0 120 120" fill="none" xmlns="http://www.w3.org/2000/svg">
<g clip-path="url(#clip0_1149_11431)">
<path d="M24 108L84 48L84 108L24 108Z" fill="#3D4D41"/>
<g clip-path="url(#clip1_1149_11431)">
<path d="M108 83.9997C108 83.9997 86.5096 83.9997 60 83.9997C33.4903 83.9997 12 83.9997 12 83.9997C12 57.4901 33.4903 35.9998 60 35.9998C86.5096 35.9998 108 57.4901 108 83.9997Z" fill="#ACD9B7"/>
</g>
<g clip-path="url(#clip2_1149_11431)">
<path d="M104.963 88.8631C104.963 88.8631 89.7669 73.6672 71.0217 54.922C52.2766 36.1769 37.0806 20.9809 37.0806 20.9809C55.8258 2.23575 86.2177 2.23575 104.963 20.9809C123.708 39.7261 123.708 70.118 104.963 88.8631Z" fill="#F8C471"/>
</g>
<path d="M27.1206 57.7478H93.1321V62.4212H27.1206V57.7478Z" fill="black"/>
<path d="M54.3893 70.4114C54.3893 70.4114 49.7658 65.7879 44.0625 60.0845C38.3592 54.3812 33.7357 49.7577 33.7357 49.7577C39.439 44.0544 48.686 44.0544 54.3893 49.7577C60.0927 55.4611 60.0927 64.708 54.3893 70.4114Z" fill="#333333"/>
<path d="M54.3895 70.4115C48.6861 76.1148 39.4392 76.1148 33.7358 70.4115C28.0325 64.7081 28.0325 55.4612 33.7358 49.7578C33.7358 49.7578 38.3593 54.3813 44.0627 60.0846C49.766 65.788 54.3895 70.4115 54.3895 70.4115Z" fill="black"/>
<path d="M86.5185 70.4114C86.5185 70.4114 81.895 65.7879 76.1917 60.0845C70.4883 54.3812 65.8648 49.7577 65.8648 49.7577C71.5682 44.0544 80.8151 44.0544 86.5185 49.7577C92.2218 55.4611 92.2218 64.708 86.5185 70.4114Z" fill="#333333"/>
<path d="M86.5186 70.4115C80.8153 76.1148 71.5683 76.1148 65.865 70.4115C60.1616 64.7081 60.1616 55.4612 65.865 49.7578C65.865 49.7578 70.4885 54.3813 76.1918 60.0846C81.8951 65.788 86.5186 70.4115 86.5186 70.4115Z" fill="black"/>
<rect x="58.6794" y="61.8" width="4.44" height="0.6" fill="black"/>
<path d="M61.92 96C61.92 86.6715 61.92 62.4 61.92 62.4C52.5753 62.4 45 69.9623 45 79.2908L45 96L61.92 96Z" fill="#FCC5F3"/>
</g>
<defs>
<clipPath id="clip0_1149_11431">
<rect width="120" height="120" fill="white"/>
</clipPath>
<clipPath id="clip1_1149_11431">
<rect width="95.9999" height="48" fill="white" transform="translate(12 36)"/>
</clipPath>
<clipPath id="clip2_1149_11431">
<rect width="95.9999" height="48" fill="white" transform="translate(71.0215 -12.96) rotate(45)"/>
</clipPath>
</defs>
</svg>
