<svg width="120" height="120" viewBox="0 0 120 120" fill="none" xmlns="http://www.w3.org/2000/svg">
<path d="M84.6752 120L103.776 51.2106C105.9 43.5645 100.149 36 92.2139 36L60 36L60 120L84.6752 120Z" fill="#F8C471"/>
<path d="M96.12 0L60.12 36L60.12 -1.57361e-06L96.12 0Z" fill="#3D4D41"/>
<path d="M12 60L60 12L60 60L12 60Z" fill="#F6BAEC"/>
<path d="M60 108L12 60L60 60L60 108Z" fill="#ACD9B7"/>
<path d="M27.1206 57.7477H93.1321V62.4211H27.1206V57.7477Z" fill="black"/>
<path d="M54.3892 70.4115C54.3892 70.4115 49.7657 65.788 44.0624 60.0847C38.359 54.3813 33.7356 49.7578 33.7356 49.7578C39.4389 44.0545 48.6859 44.0545 54.3892 49.7578C60.0925 55.4612 60.0925 64.7081 54.3892 70.4115Z" fill="#333333"/>
<path d="M54.3895 70.4115C48.6861 76.1148 39.4392 76.1148 33.7358 70.4115C28.0325 64.7081 28.0325 55.4612 33.7358 49.7578C33.7358 49.7578 38.3593 54.3813 44.0627 60.0846C49.766 65.788 54.3895 70.4115 54.3895 70.4115Z" fill="black"/>
<path d="M86.5185 70.4115C86.5185 70.4115 81.895 65.788 76.1917 60.0847C70.4883 54.3813 65.8648 49.7578 65.8648 49.7578C71.5682 44.0545 80.8151 44.0545 86.5185 49.7578C92.2218 55.4612 92.2218 64.7081 86.5185 70.4115Z" fill="#333333"/>
<path d="M86.5186 70.4115C80.8153 76.1148 71.5683 76.1148 65.865 70.4115C60.1616 64.7081 60.1616 55.4612 65.865 49.7578C65.865 49.7578 70.4885 54.3813 76.1918 60.0846C81.8951 65.788 86.5186 70.4115 86.5186 70.4115Z" fill="black"/>
<rect x="58.6796" y="61.8" width="4.44" height="0.6" fill="black"/>
</svg>
