<?xml version="1.0" encoding="UTF-8"?><svg id="Layer_2" xmlns="http://www.w3.org/2000/svg" viewBox="0 0 1374.57 312.72"><g id="Components"><g id="_20d7a74d-511c-4f95-915a-844e8c8842ac_4"><path d="m433.07,196.21c-24.52,0-35.55-12.26-35.55-28.2l1.23-1.22h14.71l1.22,1.22c0,8.58,4.9,13.49,19.62,13.49,11,0,17.16-3.68,17.16-11,0-8.58-4.91-11-22.07-13.48s-30.64-8.58-30.64-25.74c0-12.26,9.8-23.29,33.09-23.29s33.1,11,33.1,25.74l-1.22,1.22h-14.72l-1.22-1.22c0-7.36-3.68-11-17.16-11-11,0-14.71,3.68-14.71,8.59,0,7.35,4.9,9.8,22.06,12.26,17.16,2.46,30.65,9.8,30.65,27,0,13.49-9.81,25.75-35.55,25.75v-.12Z" style="stroke-width:0px;"/><path d="m563.01,194.98h-11l-1.22-1.23-6.13-15.93-2.46-1.23h-30.67l-2.45,1.23-6.13,15.93-1.23,1.23h-11l-1.23-1.23v-12.25l28.2-71.1,1.22-1.23h15.94l1.23,1.23,28.2,71.1v12.25l-1.23,1.23h-.04Zm-35.55-63.69h-1.18l-11,29.42,1.23,1.22h20.77l1.23-1.22-11-29.42h-.05Z" style="stroke-width:0px;"/><polygon points="646.38 123.88 621.86 123.88 620.63 125.11 620.63 193.75 619.41 194.98 604.7 194.98 603.47 193.75 603.47 125.11 602.25 123.88 577.73 123.88 576.51 122.65 576.51 110.4 577.73 109.17 646.38 109.17 647.6 110.4 647.6 122.65 646.38 123.88 646.38 123.88" style="stroke-width:0px;"/><path d="m708.9,196.21c-25.74,0-41.68-18.39-41.68-44.14s15.94-44.12,41.68-44.12,41.6801,18.38,41.6801,44.12-15.9399,44.14-41.68,44.14h0Zm0-73.56c-15.93,0-24.52,12.26-24.52,29.42s8.59,29.43,24.52,29.43,24.52-12.26,24.52-29.43-8.58-29.42-24.52-29.42Z" style="stroke-width:0px;"/><path d="m810.65,196.21c-24.51,0-35.55-12.26-35.55-28.2l1.23-1.22h14.71l1.23,1.22c0,8.58,4.9,13.49,19.61,13.49,11,0,17.16-3.68,17.16-11,0-8.58-4.9-11-22.0699-13.48s-30.64-8.58-30.64-25.74c0-12.26,9.8101-23.29,33.1-23.29s33.09,11,33.09,25.74l-1.22,1.22h-14.71l-1.23-1.22c0-7.36-3.67-11-17.16-11-11,0-14.71,3.68-14.71,8.59,0,7.35,4.9,9.8,22.0699,12.26s30.64,9.8,30.64,27c0,13.49-9.8,25.75-35.55,25.75v-.12Z" style="stroke-width:0px;"/><polygon points="944.28 194.98 929.56 194.98 928.3401 193.75 928.3401 159.43 927.11 158.2 894.01 158.2 892.79 159.43 892.79 193.75 891.56 194.98 876.8499 194.98 875.63 193.75 875.63 110.4 876.8499 109.17 891.56 109.17 892.79 110.4 892.79 142.27 894.01 143.49 927.11 143.49 928.3401 142.27 928.3401 110.4 929.56 109.17 944.28 109.17 945.5 110.4 945.5 193.75 944.28 194.98 944.28 194.98" style="stroke-width:0px;"/><polygon points="995.77 194.98 981.06 194.98 979.83 193.75 979.83 110.4 981.06 109.17 995.77 109.17 996.99 110.4 996.99 193.75 995.77 194.98 995.77 194.98" style="stroke-width:0px;"/><polygon points="1087.7101 194.98 1032.54 194.98 1031.32 193.75 1031.32 110.4 1032.54 109.17 1047.25 109.17 1048.4799 110.4 1048.4799 179.04 1049.7 180.27 1087.7101 180.27 1088.93 181.5 1088.93 193.75 1087.7101 194.98 1087.7101 194.98" style="stroke-width:0px;"/><path d="m1183.33,194.98h-11l-1.22-1.23-6.13-15.93-2.45-1.23h-30.65l-2.45,1.23-6.1501,15.93-1.23,1.23h-11l-1.22-1.23v-12.25l28.1899-71.1,1.23-1.23h15.9301l1.23,1.23,28.1899,71.1v12.25l-1.22,1.23h-.0499Zm-35.55-63.69h-1.23l-11,29.42,1.22,1.22h20.84l1.23-1.22-11-29.42h-.0599Z" style="stroke-width:0px;"/><path d="m1254.43,194.98h-41.6801l-1.23-1.23v-83.35l1.23-1.23h39.23c12.26,0,24.51,6.13,24.51,22.07,0,8.58-3.67,15.93-12.25,18.38v1.23c9.8,2.45,14.71,9.81,14.71,20.84,0,17.16-12.26,23.29-24.52,23.29h.0001Zm-4.9-71.1h-19.62l-1.22,1.23v17.18l1.22,1.23h19.62c7.35,0,9.8-4.91,9.8-9.81,0-6.13-2.45-9.81-9.8-9.81v-.02Zm0,34.32h-19.62l-1.22,1.23v19.61l1.22,1.23h19.62c8.58,0,12.26-3.68,12.26-11s-3.6801-11-12.26-11v-.07Z" style="stroke-width:0px;"/><path d="m1339.02,196.21c-24.52,0-35.55-12.26-35.55-28.2l1.22-1.22h14.72l1.22,1.22c0,8.58,4.91,13.49,19.61,13.49,11,0,17.17-3.68,17.17-11,0-8.58-4.91-11-22.0699-13.48-17.1599-2.48-30.65-8.58-30.65-25.74,0-12.26,9.8101-23.29,33.1-23.29s33.1,11,33.1,25.74l-1.23,1.22h-14.7l-1.23-1.22c0-7.36-3.6801-11-17.16-11-11,0-14.71,3.68-14.71,8.59,0,7.35,4.9,9.8,22.0601,12.26s30.65,9.8,30.65,27c0,13.49-9.8101,25.75-35.55,25.75v-.12Z" style="stroke-width:0px;"/><polygon points="159.89 80.43 158.66 79.2 119 79.2 117.79 80.4 117.79 213.36 116.57 214.58 93.63 214.58 92.48 215.73 92.48 230.11 93.74 231.36 133.41 231.36 134.58 230.2 134.58 97.11 135.71 95.98 158.73 95.98 159.89 94.82 159.89 80.43 159.89 80.43" style="stroke-width:0px;"/><polygon points="177.9 79.2 192.26 79.2 193.46 80.4 193.46 213.36 194.68 214.58 217.62 214.58 218.78 215.73 218.78 230.11 217.52 231.36 177.85 231.36 176.68 230.2 176.68 80.42 177.9 79.2 177.9 79.2" style="stroke-width:0px;"/><path d="m156.35,312.72C70.14,312.72,0,242.58,0,156.36S70.14,0,156.35,0s156.36,70.15,156.36,156.36-70.14,156.36-156.36,156.36Zm0-295.95c-77,0-139.59,62.62-139.59,139.59s62.62,139.59,139.59,139.59,139.59-62.66,139.59-139.59S233.28,16.77,156.35,16.77h0Z" style="stroke-width:0px;"/></g></g></svg>